<svg width="44" viewBox="0 0 73 68" fill="none" xmlns="http://www.w3.org/2000/svg">
<path d="M37.1386 38.9472C37.2116 38.8792 37.2664 38.8282 37.3029 38.7602C37.4854 38.4882 37.6679 38.2162 37.8321 37.9442C38.5986 36.7882 39.6571 35.9722 41.0806 35.6152C41.6464 35.4792 42.1939 35.3262 42.7414 35.1562C43.5444 34.9012 44.2744 34.4762 44.9861 34.0512C45.8439 33.5242 46.6834 32.9972 47.5411 32.4532C47.6141 32.4022 47.6689 32.3512 47.7419 32.3002C47.9426 32.1132 48.1434 31.9092 48.3624 31.7222C48.5996 31.5182 48.8551 31.3312 49.0924 31.1442C49.7676 30.6002 50.3516 29.9712 50.8991 29.3082C51.2824 28.8492 51.6839 28.3732 52.0489 27.8972C52.3774 27.4552 52.5416 26.9622 52.5599 26.4352C52.5781 26.1462 52.5599 25.8402 52.6694 25.5512C52.6876 25.5172 52.6694 25.4832 52.6694 25.4492C52.6694 25.3642 52.6329 25.3132 52.5599 25.2962C52.1949 25.2112 52.0306 24.9562 51.8664 24.6672C51.6474 24.2592 51.3919 23.8342 51.1364 23.4432C50.6801 22.7292 50.0231 22.2532 49.1471 22.0492C48.7274 21.9472 48.2711 21.8792 47.8331 21.8452C46.3184 21.6752 44.8401 21.8622 43.4166 22.3892C42.4494 22.7292 41.6099 23.2392 40.9164 23.9532C40.3506 24.5482 39.9126 25.2282 39.5476 25.9422C38.9636 27.0982 38.5804 28.3222 38.2884 29.5632C37.7956 31.6712 37.3211 33.7962 36.8466 35.9042C36.7919 36.1592 36.7554 36.4312 36.7919 36.6862C36.8831 37.3662 36.9744 38.0462 37.0656 38.7262C37.0839 38.7942 37.1021 38.8622 37.1386 38.9472ZM32.4119 27.4552C32.4119 27.3192 32.4301 27.2342 32.4119 27.1492C32.3206 26.7242 32.2659 26.2992 32.1381 25.8742C31.9556 25.2962 31.7184 24.7182 31.5176 24.1402C31.1891 23.1712 30.8789 22.1852 30.5504 21.2162C30.2949 20.4172 29.9664 19.6352 29.4554 18.9552C28.2691 17.3572 26.6996 16.2012 24.7834 15.4702C23.6884 15.0622 22.5751 14.8752 21.3889 15.0282C20.2574 15.1642 19.2354 15.5382 18.3229 16.1842C18.2681 16.2182 18.2134 16.2692 18.1404 16.3032C17.9579 16.4392 17.7389 16.4902 17.5016 16.4562C17.4469 16.4392 17.4104 16.4562 17.3556 16.4562C17.2826 16.5922 17.3009 16.7452 17.3009 16.8812C17.3009 17.5612 17.3374 18.2412 17.4834 18.9212C17.7936 20.2812 18.5601 21.3862 19.6734 22.3042C20.7866 23.2052 22.0276 23.9532 23.3599 24.5652C24.3271 25.0072 25.3309 25.2792 26.4076 25.3642C27.1011 25.4322 27.8129 25.4832 28.5064 25.5512C29.6014 25.6702 30.5686 26.0442 31.4081 26.6902C31.6454 26.8772 31.8644 27.0642 32.1016 27.2512C32.2111 27.3192 32.3024 27.3702 32.4119 27.4552Z" fill="#293D4A"/>
<path d="M8.50464 37.2129C8.48639 37.5189 8.44989 37.8079 8.43164 38.1139C8.43164 37.8079 8.43164 37.5189 8.43164 37.2129C8.44989 37.2129 8.46814 37.2129 8.50464 37.2129Z" fill="#293D4A"/>
<path d="M8.50464 39.8647C8.48639 39.8647 8.44989 39.8647 8.43164 39.8647C8.43164 39.6437 8.43164 39.4397 8.43164 39.2188C8.52289 39.4227 8.50464 39.6437 8.50464 39.8647Z" fill="#293D4A"/>
<path d="M64.5687 40.868C64.55 40.868 64.55 40.868 64.5312 40.868C64.5312 40.6129 64.5312 40.3579 64.5312 40.0859C64.55 40.0859 64.55 40.0859 64.5687 40.0859C64.5687 40.3579 64.5687 40.6129 64.5687 40.868Z" fill="#293D4A"/>
<path d="M6.19389 38.4466C6.23029 37.8173 6.26669 37.206 6.37589 36.5948C6.68528 34.9048 8.06845 33.5204 9.7792 33.2148C12.1997 32.7833 14.4565 34.3834 14.8023 36.7925C14.8751 37.2959 14.8387 37.7993 14.8023 38.2848C14.7295 39.2916 14.7295 40.3163 14.8023 41.3232C14.9115 42.7255 15.1663 44.1099 15.6031 45.4583C16.6586 48.8203 18.5332 51.6789 21.1539 54.0521C21.2267 54.106 21.2995 54.1779 21.3723 54.2319C21.3905 54.2498 21.4269 54.2498 21.4815 54.2678C21.5179 54.1959 21.5543 54.124 21.5907 54.0521C21.9911 53.2071 22.3915 52.3621 22.8647 51.535C23.4107 50.6181 24.0112 49.7372 24.7756 49.0001C25.0304 48.7484 25.3034 48.5326 25.5946 48.3348C26.7958 47.4898 28.0879 47.346 29.4529 47.8674C30.2537 48.173 30.9453 48.6045 31.6005 49.1439C31.9281 49.4136 32.2556 49.7012 32.5832 49.9889C32.6378 50.0428 32.6924 50.0788 32.7834 50.1507C32.8198 50.0428 32.8562 49.9709 32.8562 49.899C32.9108 49.3416 32.9836 48.7843 33.0382 48.209C33.111 47.1842 33.1656 46.1594 33.202 45.1167C33.2384 44.02 33.202 42.9053 33.0928 41.8086C33.02 40.9456 32.9472 40.1006 32.8562 39.2376C32.6924 37.6915 32.4376 36.1633 32.11 34.6531C31.6915 32.7653 31.2729 30.8775 30.8543 28.9718C30.6177 27.8751 30.4539 26.7424 30.3447 25.6278C30.2173 24.3693 30.1991 23.1108 30.2901 21.8522C30.3993 20.2342 30.7087 18.6341 31.1637 17.0699C31.3093 16.5845 31.4549 16.0991 31.6369 15.6136C31.8917 14.8765 31.8917 14.1753 31.5823 13.4562C31.4731 13.2045 31.3639 12.9528 31.2365 12.7191C30.7087 11.6763 30.4357 10.5796 30.5085 9.42897C30.5813 8.2244 30.9089 7.09174 31.4549 6.01302C31.8917 5.13207 32.474 4.35898 33.202 3.67579C33.8936 3.02856 34.7308 2.70494 35.6408 2.56111C35.8592 2.52516 35.8592 2.54314 35.9683 2.72292C36.1321 3.02856 36.3141 3.31622 36.4779 3.62186C36.8965 4.341 37.0785 5.11409 37.1877 5.92313C37.3333 7.18164 37.2787 8.44014 37.0603 9.68067C36.8783 10.7414 36.4779 11.7123 35.6954 12.4853C35.4042 12.773 35.0948 13.0247 34.7854 13.2764C34.2758 13.6899 33.7662 14.1034 33.2566 14.5169C32.9108 14.7866 32.6742 15.1462 32.5104 15.5597C32.2556 16.153 32.0736 16.7643 31.9281 17.3755C31.6915 18.3284 31.4731 19.2813 31.3457 20.2521C31.2001 21.3668 31.1455 22.4815 31.1637 23.6142C31.1819 24.9985 31.3639 26.3469 31.6187 27.6953C32.0372 29.9067 32.5832 32.1001 33.0928 34.2935C33.4022 35.6059 33.7298 36.9184 33.93 38.2668C34.0574 39.1657 34.1666 40.0467 34.2576 40.9456C34.4032 42.5637 34.4578 44.1818 34.4214 45.8178C34.4032 46.9325 34.3304 48.0652 34.2758 49.1798C34.2394 49.863 34.1302 50.5642 34.0574 51.2474C34.0392 51.3553 34.0392 51.4452 34.112 51.535C34.6944 52.2182 35.2586 52.9194 35.8592 53.5846C36.5143 54.3217 37.2787 54.987 38.1341 55.5083C38.8439 55.9398 39.5901 56.2455 40.409 56.3713C41.1188 56.4792 41.8286 56.4612 42.5202 56.3354C43.1936 56.2095 43.8488 56.0837 44.5221 55.9578C44.7041 55.9218 44.8861 55.8499 45.0499 55.76C47.7435 53.9442 49.9092 51.6609 51.4198 48.7843C52.4025 46.9505 53.0577 45.0088 53.4035 42.9592C53.4763 42.4918 53.5491 42.0063 53.5855 41.5389C53.7493 39.6511 55.1507 38.087 57.0434 37.7274C59.3366 37.278 61.5387 38.6983 62.0483 40.9636C62.0847 41.1434 62.1029 41.3232 62.1211 41.5209C62.1211 41.7906 62.1211 42.0603 62.1211 42.3479C62.1211 42.4558 62.1211 42.5817 62.1029 42.6895C61.9937 43.4267 61.9027 44.1818 61.7753 44.9189C61.3203 47.4719 60.4831 49.899 59.3184 52.2182C57.5712 55.6701 55.2053 58.6366 52.2205 61.0997C47.4705 65.0011 41.9924 67.1226 35.8228 67.5001C34.7126 67.572 33.6024 67.5541 32.474 67.4821C31.3457 67.4102 30.2173 67.2844 29.1071 67.0686C26.45 66.5832 23.9021 65.7562 21.4815 64.5157C17.7506 62.6099 14.5839 60.021 11.9995 56.7309C9.852 54.0341 8.34144 51.0496 7.34046 47.8135C6.88547 46.3212 6.55788 44.811 6.37589 43.2649C6.30309 42.5996 6.24849 41.9344 6.19389 41.2512C6.21209 41.0175 6.21209 40.7838 6.12109 40.5501C6.12109 40.1725 6.12109 39.777 6.12109 39.3994C6.13929 39.0758 6.15749 38.7702 6.19389 38.4466Z" fill="#293D4A"/>
<path d="M34.7491 40.2806C34.7127 40.1907 34.6945 40.1188 34.6763 40.0649C34.5853 39.3457 34.4943 38.6266 34.4033 37.9074C34.3669 37.6198 34.4033 37.3501 34.4579 37.0804C34.9311 34.8511 35.4043 32.6037 35.8957 30.3744C36.1869 29.0619 36.5873 27.7675 37.1514 26.5449C37.5154 25.7898 37.9522 25.0707 38.5164 24.4414C39.208 23.6683 40.0634 23.1469 41.0097 22.7874C42.4293 22.248 43.9035 22.0502 45.414 22.212C45.8508 22.266 46.2876 22.3199 46.7244 22.4278C47.5798 22.6435 48.2532 23.1469 48.7081 23.902C48.9629 24.3335 49.1995 24.765 49.4361 25.1965C49.5999 25.5021 49.7637 25.7718 50.1277 25.8617C50.2187 25.8797 50.2551 25.9336 50.2369 26.0235C50.2369 26.0595 50.2369 26.0954 50.2369 26.1314C50.1277 26.437 50.1277 26.7606 50.1277 27.0663C50.1095 27.6416 49.9457 28.163 49.6181 28.6124C49.2541 29.1159 48.8719 29.6193 48.4715 30.1047C47.9256 30.7879 47.3432 31.4711 46.6698 32.0464C46.4332 32.2441 46.1784 32.4419 45.9418 32.6577C45.7234 32.8554 45.5232 33.0532 45.323 33.2689C45.2684 33.3229 45.1956 33.3948 45.1228 33.4307C44.2857 33.9881 43.4303 34.5634 42.5749 35.1207C41.8651 35.5702 41.1371 36.0197 40.3364 36.2893C39.7904 36.4691 39.2262 36.6309 38.6802 36.7748C37.2606 37.1523 36.2051 38.0153 35.4407 39.2378C35.2587 39.5255 35.0949 39.8132 34.9129 40.1008C34.8765 40.1548 34.8219 40.2087 34.7491 40.2806Z" fill="#293D4A"/>
<path d="M30.0348 28.1263C29.9074 28.0364 29.8164 27.9825 29.7436 27.9105C29.507 27.7128 29.2886 27.515 29.052 27.3172C28.1966 26.6341 27.2321 26.2385 26.1583 26.1127C25.4667 26.0408 24.7569 25.9688 24.0653 25.9149C23.0098 25.807 21.9906 25.5194 21.026 25.0699C19.6974 24.4407 18.4781 23.6316 17.3497 22.6787C16.2395 21.7259 15.4751 20.5393 15.1657 19.101C15.0202 18.3818 14.9656 17.6627 14.9838 16.9435C14.9838 16.7997 14.9474 16.6379 15.0384 16.4941C15.0929 16.4941 15.1475 16.4941 15.1839 16.4941C15.4205 16.548 15.6207 16.4761 15.8209 16.3323C15.8755 16.2963 15.9301 16.2424 16.0029 16.2064C16.9129 15.5232 17.9503 15.1277 19.0605 14.9839C20.2252 14.8221 21.3536 15.0198 22.4456 15.4513C24.3747 16.2244 25.9217 17.4469 27.1047 19.1369C27.6142 19.8741 27.9236 20.6831 28.1966 21.5281C28.506 22.5529 28.8336 23.5957 29.1612 24.6204C29.3614 25.2317 29.598 25.825 29.78 26.4543C29.9074 26.8858 29.962 27.3532 30.053 27.8027C30.0712 27.9105 30.053 28.0004 30.0348 28.1263Z" fill="#293D4A"/>
</svg>
